Patient4_TMGait_0pt7_01_left_41_EMG.mot
version=1
nRows=33
nColumns=33
inDegrees=no
endheader
time	1LAddLong	2LGlutMax	3LGlutMed	4LIliopsoas	5LSemiMemb	6LBicFemLong	7LRecFem	8LVastMed	9LVastLat	10LGasMed	11LTibAnt	12lTibPost	13LPeroneusLong	14LSol	15LExtDigLong	16LFlexDigLong	17RAddLong	18RGlutMax	19RGlutMed	20RIliopsoas	21RSemiMemb	22RBicFemLong	23RRecFem	24RVastMed	25RVastLat	26RGasMed	27RTibAnt	28RTibPost	29RPeroneusLong	30RSol	31RExtDigLong	32RFlexDigLong
48.28	0.009766	0.24094	-0.22278	-0.015106	0.051727	0.10315	-0.46127	0.005035	-0.027618	-0.11124	0.1001	-0.003204	0.030365	-0.059967	0.014801	-0.028381	0.1326	0.091248	1.0542	-0.20783	0.092773	-0.12909	0.10376	-0.23086	-0.16037	0.005798	0.18387	-0.003662	-0.045319	-0.10513	-0.001221	-0.001831
48.281	0.009308	0.23514	-0.21515	-0.018616	0.048676	0.009766	-0.46783	0.003662	-0.046844	-0.06897	0.10544	0.012207	0.011902	-0.12192	0.051422	-0.040436	0.021057	0.18417	0.70679	-0.27023	-0.13184	0.081329	-0.047913	0.024567	-0.09613	-0.002899	0.072021	-0.003357	0.006104	-0.004425	0.003204	-0.009003
48.282	0.009003	0.24368	-0.21454	-0.02121	0.044861	-0.053406	-0.46906	0.000916	-0.0354	-0.033722	0.14694	0.003357	0.024109	-0.10559	0.060883	-0.029449	-0.038452	0.19501	0.81726	-0.22827	0.002899	0.03418	-0.48675	0.19959	0.013428	-0.015106	0.038605	-0.001373	0.06546	0.10178	0.002747	-0.007324
48.283	0.010529	0.26764	-0.20813	-0.005188	0.032959	-0.079498	-0.4718	0.002594	-0.020905	-0.023804	0.041504	0.003815	0.04715	-0.10788	0.05722	-0.006866	-0.056	0.17975	0.58868	-0.077515	0.15289	-0.053558	-0.42023	0.40619	0.066833	-0.007629	0.060577	0.002289	0.033264	0.053711	0.003662	0.004272
48.284	0.015869	0.22858	-0.21271	-0.011444	0.01709	-0.055847	-0.47852	-0.000916	-0.016785	0.007477	-0.063629	0.00351	0.030823	-0.060425	-0.008698	-0.016022	-0.067596	0.17777	0.55328	0.016632	0.43137	-0.21179	-0.31738	0.31815	-0.13107	-0.007629	0.061646	-0.011597	0.065308	-0.023041	0.003662	-0.002441
48.285	0.020752	0.24979	-0.21912	-0.024109	0.001526	-0.042572	-0.50964	-0.005646	-0.014191	0.04364	-0.11917	0.009155	0.0354	-0.037231	-0.065918	-0.014954	-0.078278	0.16632	0.22186	0.25223	0.41229	-0.26886	-0.23041	0.23895	-0.21942	-0.016785	0.035248	-0.022125	0.11841	-0.13992	0.003204	-0.004272
48.286	0.015106	0.22705	-0.21194	-0.001526	-0.003662	0.001984	-0.50095	-0.004578	-0.018768	0.084686	-0.09201	0.007629	0.055695	0.017395	-0.12207	-0.014191	-0.046082	0.16449	0.28778	0.37003	0.29816	-0.20233	-0.071716	0.43182	0.06424	-0.016937	0.016632	-0.017548	0.15091	-0.077667	0.000305	-0.009308
48.287	0.012054	0.22934	-0.24262	-0.007324	-0.007935	0.023804	-0.49911	0.000916	-0.018921	0.070496	-0.020294	0.010986	0.090637	0.052032	-0.13641	-0.011597	-0.052185	0.057983	0.29068	0.23102	0.43869	-0.25146	-0.003357	0.35416	0.18799	-0.007935	-0.001526	-0.005951	0.18082	-0.14267	0.000763	-0.010986
48.288	0.014648	0.27756	-0.26169	-0.027313	-0.019531	0.14954	-0.48263	-0.008698	0.000305	0.075073	0.074768	0.004578	0.037231	0.019989	-0.014038	-0.018005	-0.054474	0.11261	0.62698	0.10513	0.62134	-0.24902	-0.048676	0.17578	0.19379	-0.01236	0.28259	-0.002136	0.063477	-0.11475	-0.000305	-0.010834
48.289	0.01236	0.27664	-0.27008	-0.013733	-0.038147	0.081329	-0.49133	-0.002441	-0.010834	0.055847	0.084991	0.004578	-0.005341	0.028229	0.10193	-0.00412	-0.01236	0.022125	0.48996	0.012817	0.43945	-0.27496	-0.022583	0.16495	0.076141	-0.004883	0.52887	-0.003204	0.007477	0.046997	-0.002136	-0.00946
48.29	0.022888	0.21118	-0.25528	-0.001984	-0.028534	-0.042114	-0.49469	0.001068	-0.01358	-0.069427	0.076447	-0.002594	0.035553	0.090179	0.034027	-0.005646	0.065308	-0.085602	0.17349	-0.045929	0.073853	-0.24948	-0.1506	-0.038757	0.021973	-0.020599	0.7991	-0.00473	-0.097656	0.068817	0.001526	-0.020142
48.291	0.019531	0.2005	-0.22003	-0.000153	0.009766	-0.10223	-0.46845	-0.001526	-0.018616	-0.18143	0.13825	0.010834	0.030975	0.11307	0.11292	-0.000916	0.1297	-0.025787	-0.001526	0.02243	-0.082703	0.021515	-0.24338	-0.21896	-0.059509	-0.020905	1.2212	-0.009155	-0.1384	-0.12894	0.00061	-0.005188
48.292	0.011902	0.22278	-0.21027	0.011597	0.00473	-0.092468	-0.47623	0.006714	-0.026245	-0.076904	0.10529	0.00885	0.006104	0.11108	0.13062	-0.010223	0.11871	0.1152	0.13351	0.059509	-0.18616	0.28122	-0.0737	-0.2861	0.003815	-0.002594	0.86624	-0.00473	0.047607	-0.24948	-0.002441	-0.002441
48.293	0.016785	0.24216	-0.16998	0.002441	0.019684	-0.062561	-0.47104	-0.000153	-0.014343	-0.039978	-0.029144	0.004425	0.019836	0.14343	0.12054	-0.00473	-0.008545	0.25436	0.2803	0.021362	0.29602	0.63721	0.043945	-0.22507	0.028687	0.010986	-0.90286	-0.003357	0.20706	-0.42236	-0.001221	0.003815
48.294	0.016327	0.24277	-0.16251	-0.024872	-0.002594	-0.011902	-0.44174	-0.001526	-0.015869	-0.053406	-0.21744	0.009308	0.10208	0.13489	-0.032806	-0.006561	-0.1593	0.39063	0.2092	0.027771	0.33752	1.0669	0.18601	-0.042725	-0.006714	0.008087	-1.8515	-0.002899	0.045624	-0.45929	0.003357	0.000153
48.295	0.014038	0.25757	-0.17044	-0.019989	0.000458	0.005341	-0.44968	0.003815	-0.019531	-0.043945	-0.10788	0.009308	0.084991	0.076904	-0.17303	-0.010681	-0.21698	0.44891	-0.055695	0.094452	0.39703	0.99197	0.12497	0.18478	-0.092468	-0.005035	-1.3441	-0.001984	-0.14542	-0.40009	0.001068	-0.01236
48.296	0.014343	0.22034	-0.16495	-0.006561	-0.007324	0.11612	-0.45822	0.003204	-0.012207	-0.020599	-0.081482	0.014496	0.038605	0.056458	-0.23224	-0.00946	-0.18799	0.43549	-0.10315	0.1004	0.51453	0.72632	-0.075378	0.56992	0.18341	-0.005493	-0.58227	-0.00885	-0.037231	-0.33203	0.000763	-0.001221
48.297	0.015717	0.25589	-0.15915	0.010529	-0.021667	0.14755	-0.4567	0.003204	-0.026245	-0.017242	-0.082092	0.00351	0.064392	-0.018921	-0.30746	-0.014648	-0.11017	0.38315	-0.12405	0.065613	0.54581	0.48935	-0.061646	0.76309	0.83893	0.000916	-0.27695	-0.006714	0.13779	0.17059	-0.001068	-0.000153
48.298	0.027008	0.26062	-0.13046	0.001373	-0.023499	0.074463	-0.47684	0.001068	-0.005341	-0.035553	0.06958	0.015106	0.070038	-0.020142	-0.19745	-0.011292	-0.076904	0.25421	-0.13443	0.017548	0.46845	0.2948	0.083618	0.43381	0.80017	-0.001678	-0.10559	-0.005951	0.19592	0.32135	-0.003357	0.000916
48.299	0.032654	0.27359	-0.11536	-0.008698	-0.021057	0.001221	-0.47821	0.000153	-0.003357	-0.050049	0.061951	0.010986	0.036316	0.10361	0.31769	-0.022888	-0.059814	0.083008	0.10223	-0.022583	0.30472	0.24719	0.37338	0.16312	0.3305	-0.001678	-0.35202	-0.01236	0.15091	0.30594	-0.005188	-0.003052
48.3	0.04303	0.27847	-0.090179	0.016785	-0.018463	-0.081635	-0.46448	-0.00351	-0.004578	-0.039673	0.041046	0.016022	-0.016022	0.13718	0.13886	-0.004425	-0.051727	-0.014801	0.32516	-0.015717	0.2623	0.26077	0.37216	0.46143	0.17044	-0.015717	-0.42908	-0.010986	0.036621	0.4007	0	-0.006561
48.301	0.062561	0.29877	-0.089722	-0.00473	-0.005493	-0.121	-0.49377	-0.005493	0.006409	-0.025482	0.025024	0.013733	-0.009155	0.12772	0.2095	-0.003357	-0.040588	-0.051575	0.38773	0.005951	0.26398	0.19806	0.31174	0.10544	0.3479	-0.00824	-0.27557	-0.008545	0.09491	0.34302	0.001526	-0.005188
48.302	0.071869	0.31448	-0.067902	-0.018463	0.006866	-0.10346	-0.47379	-0.003662	0.00061	-0.012207	-0.036011	0.014343	-0.01236	0.14984	-0.23331	-0.018005	-0.01358	0.03067	1.2175	-0.055542	0.19241	0.11643	0.40863	-0.23727	0.61676	-0.001984	-0.16083	-0.003967	0.14862	0.19104	0.001221	0.000458
48.303	0.063629	0.31815	-0.066528	-0.009003	0.016785	-0.090637	-0.46493	-0.003662	-0.002136	-0.006561	-0.011139	0.015869	-0.033722	0.07431	-0.22644	0.007782	0.039368	0.026093	1.6237	-0.048676	0.07309	0.097198	0.52933	-0.50598	0.25406	-0.005035	-0.12756	-0.004272	0.13809	0.13458	-0.001373	-0.003967
48.304	-0.007477	0.32166	-0.055695	0.001678	0.005188	-0.021667	-0.45944	-0.004272	0.001221	-0.024261	0.015717	0.023956	-0.023193	-0.068359	-0.15137	0.038452	0.05722	-0.031281	0.83283	-0.012817	0.063477	0.055847	0.42191	-0.57632	-0.15656	-0.009003	-0.086975	-0.005646	0.12833	0.10315	0.000305	-0.00885
48.305	0.030212	0.29968	-0.053864	-0.007629	-0.008698	-0.000153	-0.46066	-0.00885	0.005188	-0.015564	-0.040588	0.022125	0.011139	-0.054016	0.020752	0.017242	0.09964	0.042419	-0.002441	-0.02243	0.072479	0.071411	0.077209	0.034637	-0.53421	-0.007324	-0.026855	-0.002136	0.12039	0.075989	0.000153	-0.004425
48.306	0.03479	0.30533	-0.037231	0.004425	-0.010834	0.050964	-0.44311	0.000153	0.016479	-0.021973	-0.017395	0.020294	-0.002747	0.046234	-0.14603	-0.014343	0.12054	0.20798	-0.10788	-0.093231	0.013885	0.11429	-0.65842	-0.022736	-0.48706	-0.010681	0.008545	-0.000763	0.10101	0.031891	0.005341	-0.011597
48.307	0.032806	0.31738	-0.023651	0.016327	-0.014343	0.072479	-0.40237	-0.00473	0.014648	-0.050201	-0.007782	0.025787	0.011444	0.1059	-0.085144	-0.075531	0.17273	0.30014	0.39658	-0.1445	-0.000458	0.1329	-0.88821	-0.43564	-0.30487	-0.010681	0.030823	-0.001678	0.036621	0.00885	0.000916	-0.008698
48.308	0.046692	0.34775	0.00946	0.001068	-0.013428	-0.020142	-0.39887	-0.007019	0.021057	-0.044403	0.019073	0.023651	0.024567	0.040436	0.047302	-0.068817	0.10513	0.30533	0.87097	-0.14984	0.00946	0.14267	-0.98679	-0.97595	-0.28732	-0.004883	0.048981	-0.004883	0.032043	-0.001678	0.003357	-0.002441
48.309	0.045624	0.35797	0.022278	-0.012665	0.010529	-0.10132	-0.36697	-0.005341	0.015259	0.000763	0.065308	0.024414	0.053253	0.024414	0.05722	0.003967	0.071106	0.27496	1.2386	-0.16556	0.013123	0.067749	-0.7341	-1.0349	-0.41473	-0.01358	0.092926	-0.003815	-0.018463	-0.023499	0	-0.001526
48.31	0.048981	0.34088	0.029907	0.002289	0.028076	-0.065155	-0.35095	-0.000458	-0.003357	0.055237	-0.024261	0.019073	0.074768	0.039673	0.12589	0.015869	0.065613	0.33127	0.55908	-0.15747	-0.090027	0.079193	-0.74554	-0.6337	-0.40146	-0.018005	0.10666	-0.009613	-0.053253	0.002136	0.002747	-0.003052
48.311	0.03891	0.30624	0.051727	-0.005646	0.016937	-0.046997	-0.3154	-0.001221	0.008545	0.080414	-0.047455	0.023041	0.048523	0.066528	0.065155	0.003052	0.072327	0.38834	-0.32822	-0.080872	-0.099335	0.005341	-0.16388	-0.36835	-0.20844	-0.011292	0.11597	-0.004883	-0.050201	0.003662	0.001068	-0.004272
48.312	0.037384	0.30319	0.067902	-0.031128	-0.011597	-0.018921	-0.30411	0.004272	-0.007324	0.040131	-0.048828	0.030212	0.042419	-0.028076	0.024109	-0.11963	0.072021	0.36545	-0.37842	-0.11871	-0.077515	-0.028992	-0.03418	-0.14664	-0.2298	-0.010834	0.10941	-0.010223	-0.082245	0.04303	-0.005341	-0.005341
